<?xml version="1.0" encoding="utf-8"?>
<!-- Generator: Adobe Illustrator 16.0.0, SVG Export Plug-In . SVG Version: 6.00 Build 0)  -->
<!DOCTYPE svg PUBLIC "-//W3C//DTD SVG 1.1//EN" "http://www.w3.org/Graphics/SVG/1.1/DTD/svg11.dtd">
<svg version="1.1" id="Layer_1" xmlns="http://www.w3.org/2000/svg" xmlns:xlink="http://www.w3.org/1999/xlink" x="0px" y="0px"
	 width="351.022px" height="269.515px" viewBox="0 0 351.022 269.515" enable-background="new 0 0 351.022 269.515"
	 xml:space="preserve">
<g>
	<g>
		<g>
			<path fill-rule="evenodd" clip-rule="evenodd" d="M265.857,171.715c1.984-0.187,2.509-0.862,1.634-2.357
				c-0.952-1.627-2.137-3.171-3.463-4.51c-1.626-1.642-3.505-3.033-5.003-4.303c0.106-1.168,0.195-2.127,0.291-3.165
				c5.239-2.513,6.331-8.107,0.08-10.627c1.084-1.044,2.293-2.002,3.239-3.173c1.237-1.532,1.735-3.353,0.783-5.229
				c-0.949-1.867-2.699-2.494-4.671-2.509c-0.954-0.007-1.91,0.19-2.992,0.309c0-1.383,0.121-2.696-0.024-3.978
				c-0.319-2.792-2.144-4.064-4.716-3.003c-2.123,0.877-4.057,2.237-6.02,3.469c-1.01,0.634-1.901,1.457-2.87,2.213
				c-1.859-2.041-3.553-4.023-5.376-5.877c-4.767-4.847-9.834-9.291-16.392-11.626c-0.299-0.106-0.57-0.31-0.832-0.499
				c-3.341-2.419-6.916-4.388-10.828-5.734c-0.351-0.121-0.654-0.434-0.933-0.706c-0.809-0.79-1.476-1.797-2.413-2.367
				c-1.824-1.108-3.823-1.925-5.697-2.958c-2.052-1.131-3.024-2.887-2.53-5.253c0.731-3.504,1.242-7.086,2.338-10.477
				c5.089-15.761,12.432-30.527,20.32-45.034c1.562-2.87,2.617-5.873,2.945-9.109c0.213-2.1,0.265-4.217,0.4-6.523
				c1.131,0.492,2.143,0.931,3.297,1.433c0.742-4.951-2.271-8.24-5.331-11.757c1.588-0.217,2.906-0.397,4.34-0.593
				c-1.818-5.561-5.915-8.209-11.729-9.093c1.199-1.131,2.158-2.037,3.177-2.998c-4.745-2.536-9.552-3.231-14.593-1.213
				c-1.274,0.511-1.923,0.087-1.726-1.271c0.157-1.085,0.571-2.132,0.871-3.196c-0.187,0-0.373,0-0.56,0
				c-0.596,0.219-1.188,0.449-1.788,0.653c-3.23,1.098-5.86,3.017-7.928,5.728c-0.477,0.624-1.03,1.188-1.544,1.775
				c-3.378-2.65-5.955-2.629-8.96,0.349c-3.45,3.419-5.938,7.456-6.46,12.404c-0.162,1.535,0.17,3.123,0.287,4.875
				c-4.248,3.053-9.262,4-14.632,3.485c-4.63-0.444-9.056-1.711-13.357-3.427c-4.495-1.793-9.099-2.788-13.939-1.92
				c-6.446,1.155-10.944,4.952-13.913,10.639c-3.166,6.063-4.029,12.632-4.084,19.675c0.902-0.614,1.629-1.065,2.31-1.578
				c4.773-3.597,9.674-6.98,15.185-9.389c9.722-4.249,19.877-5.479,30.367-4.454c1.111,0.108,2.22,0.235,3.732,0.396
				c-0.717,0.51-1.111,0.878-1.574,1.108c-5.881,2.915-11.727,5.906-17.672,8.682c-5.217,2.434-10.327,5.015-14.684,8.824
				c-1.422,1.242-2.73,2.708-3.749,4.292c-1.709,2.659-1.214,4.962,1.077,7.137c0.477,0.452,0.835,1.099,1.07,1.723
				c3.475,9.204,8.948,16.949,16.762,22.974c2.567,1.98,5.416,3.451,8.576,4.275c5.138,1.341,9.31-0.791,13.223-3.725
				c7.604-5.703,12.888-13.263,17.103-21.647c0.771-1.535,1.384-3.153,2.042-4.744c2.193-5.305,5.825-9.581,9.617-13.745
				c0.154,0.033,0.31,0.067,0.464,0.1c-0.161,2.386-0.19,4.789-0.506,7.153c-0.956,7.164-4.078,13.519-7.626,19.688
				c-4.347,7.556-8.827,15.036-13.057,22.657c-1.824,3.288-3.189,6.835-4.703,10.291c-0.338,0.772-0.658,1.065-1.542,0.848
				c-6.202-1.525-12.417-3.079-18.183-5.871c-3.635-1.76-6.952-4.168-10.552-6.014c-3.007-1.542-6.218-2.688-9.337-4.014
				c-0.336-0.143-0.716-0.256-0.977-0.493c-4.069-3.695-8.179-7.349-12.146-11.151c-1.295-1.24-2.071-3.012-3.33-4.301
				c-1.908-1.955-3.959-3.792-6.102-5.487c-0.816-0.646-2.031-0.88-3.106-1.087c-1.286-0.249-1.866,0.769-2.404,1.716
				c0,1.027,0,2.053,0,3.08c0.056,0.073,0.147,0.139,0.163,0.22c1.512,7.865,5.981,13.955,11.625,19.328
				c1.492,1.421,3.071,2.75,4.611,4.121c-3.112-1.49-6.043-3.261-8.977-5.026c-0.917-0.552-1.787-1.335-2.781-1.561
				s-2.279-0.185-3.144,0.282c-1.057,0.572-0.933,1.944-0.466,2.919c0.816,1.709,1.681,3.445,2.83,4.936
				c2.984,3.871,6.733,6.973,10.648,9.854c3.184,2.342,6.466,4.55,9.955,6.993c-0.703-0.208-1.131-0.358-1.568-0.458
				c-3.26-0.749-6.49-1.713-9.791-2.161c-2.764-0.375-3.961,1.444-2.693,3.964c0.817,1.622,2.035,3.137,3.367,4.384
				c3.244,3.036,7.193,4.958,11.314,6.525c1.357,0.516,2.732,0.988,4.05,1.461c-1.44,0-2.89-0.103-4.318,0.027
				c-1.659,0.15-3.366,0.304-4.931,0.821c-1.848,0.612-2.219,2.279-0.983,3.803c0.634,0.782,1.446,1.463,2.286,2.028
				c3.406,2.288,7.248,3.592,11.148,4.725c1.858,0.54,3.747,0.974,5.729,1.483c-2.2,0.366-4.269,0.624-6.296,1.071
				c-2.016,0.445-2.619,1.927-1.443,3.648c0.637,0.933,1.529,1.802,2.5,2.368c1.311,0.764,2.769,1.351,4.233,1.764
				c4.776,1.347,9.69,1.397,14.584,1.082c2.151-0.14,4.087,0.124,6.087,0.912c3.521,1.388,7.256,1.609,11.012,1.442
				c0.177,0.348,0.34,0.63,0.469,0.926c2.481,5.669,5.897,10.675,10.471,14.876c0.427,0.392,0.702,0.972,0.979,1.5
				c2.162,4.131,4.171,8.363,7.92,11.392c0.171,0.138,0.371,0.365,0.38,0.56c0.085,1.76,0.242,3.53,0.117,5.279
				c-0.035,0.49-0.865,1.181-1.446,1.33c-2.857,0.734-5.653,0.1-8.394-0.723c-3.213-0.964-6.388-2.054-9.609-2.987
				c-0.915-0.265-1.99-0.397-2.888-0.174c-0.746,0.187-1.605,0.867-1.909,1.552c-0.216,0.485,0.438,1.337,0.653,2.041
				c0.129,0.42,0.368,1.019,0.188,1.274c-0.301,0.426-0.918,0.616-1.37,0.948c-0.629,0.463-1.688,0.927-1.731,1.458
				c-0.063,0.779,0.503,1.695,1.01,2.401c0.275,0.383,0.973,0.581,1.502,0.635c1.105,0.112,2.229,0.136,3.34,0.079
				c1.425-0.072,2.226,0.536,2.156,1.982c-0.059,1.248,0.582,1.72,1.646,1.766c0.782,0.034,1.62,0.04,2.351-0.196
				c2.57-0.827,5.134-1.691,7.646-2.678c4.104-1.612,8.272-2.459,12.719-1.915c2.488,0.305,5.024,0.34,7.537,0.309
				c1.873-0.022,2.595-1.479,1.416-2.939c-0.645-0.798-1.762-1.517-2.755-1.663c-1.911-0.281-3.892-0.233-5.833-0.129
				c-1.849,0.1-2.066,0.068-2.014-1.812c0.042-1.534,0.296-3.061,0.399-4.595c0.057-0.843,0.368-1.272,1.227-1.583
				c1.165-0.423,2.269-1.074,3.313-1.757c1.215-0.795,1.951-0.676,3.003,0.343c1.426,1.382,2.932,2.699,4.517,3.894
				c0.784,0.592,1.822,0.847,2.953,1.345c-0.483,2.821-0.946,5.619-1.452,8.41c-0.172,0.952-0.769,1.465-1.753,1.74
				c-4.225,1.181-8.479,1.752-12.863,1.113c-1.379-0.201-2.802-0.355-4.18-0.236c-1.314,0.114-2.688,0.428-3.855,1.015
				c-0.628,0.315-1.186,1.39-1.184,2.121c0.002,0.482,1.02,1.317,1.642,1.377c2.001,0.19,2.506,1.483,2.652,3.098
				c0.033,0.375-0.252,0.914-0.563,1.158c-0.761,0.597-1.83,0.907-2.381,1.632c-0.488,0.644-0.79,1.821-0.528,2.521
				c0.221,0.588,1.413,1.216,2.103,1.142c1.59-0.17,3.299-0.467,4.663-1.236c2.328-1.314,4.166-0.347,6.268,0.612
				c-0.806,1.603-1.42,3.152,0.439,4.361c0.374,0,0.747,0,1.12,0c4.304-2.39,7.253-6.204,10.356-9.854
				c0.513-0.604,0.986-1.24,1.467-1.87c1.616-2.122,3.787-3.052,6.422-3.108c1.856-0.04,3.713-0.174,5.564-0.332
				c0.49-0.042,0.992-0.268,1.435-0.509c1.526-0.833,1.665-2.622,0.13-3.439c-1.066-0.567-2.375-0.841-3.596-0.917
				c-1.521-0.096-3.079,0.043-4.592,0.275c-1.171,0.18-1.925-0.241-2.117-1.264c-0.454-2.411-0.76-4.851-1.063-7.287
				c-0.029-0.23,0.335-0.681,0.593-0.752c4.461-1.229,7.244-4.378,9.479-8.175c0.136-0.231,0.299-0.446,0.289-0.433
				c4.222,2.076,8.271,4.277,12.489,6.089c5.026,2.158,10.287,3.602,15.83,3.613c1.014,0.002,2.064-0.098,3.034-0.375
				c2.008-0.574,2.563-2.131,1.463-3.906c-0.385-0.621-0.903-1.159-1.506-1.918c1.233,0.157,2.297,0.392,3.362,0.405
				c1.613,0.021,3.305,0.167,4.826-0.244c2.596-0.7,3.319-3.045,1.8-5.288c-0.694-1.025-1.61-1.9-2.519-2.952
				c1.855-0.108,3.92,0.544,5.174-1.438c0-0.467,0-0.934,0-1.4C270.714,175.949,268.342,173.871,265.857,171.715z M185.496,15.072
				L185.496,15.072c0.155,0.119,0.308,0.236,0.452,0.348C185.804,15.309,185.651,15.191,185.496,15.072z"/>
		</g>
		<text transform="matrix(1 0 0 1 0 248.6094)" font-family="'Calibri'" font-size="102.83">T</text>
		<text transform="matrix(1 0 0 1 49.835 249.1787)"><tspan x="0" y="0" font-family="'Calibri'" font-size="70.9538" letter-spacing="5">WY</tspan><tspan x="109.053" y="0" font-family="'Calibri'" font-size="70.9538" letter-spacing="-1">T</tspan><tspan x="141.784" y="0" font-family="'Calibri'" font-size="70.9538" letter-spacing="5">TER</tspan></text>
	</g>
	<rect y="257.515" fill-rule="evenodd" clip-rule="evenodd" width="339.022" height="8"/>
</g>
</svg>
