<?xml version="1.0" encoding="utf-8"?>
<!-- Generator: Adobe Illustrator 16.0.0, SVG Export Plug-In . SVG Version: 6.00 Build 0)  -->
<!DOCTYPE svg PUBLIC "-//W3C//DTD SVG 1.1//EN" "http://www.w3.org/Graphics/SVG/1.1/DTD/svg11.dtd">
<svg version="1.1" id="Layer_1" xmlns="http://www.w3.org/2000/svg" xmlns:xlink="http://www.w3.org/1999/xlink" x="0px" y="0px"
	 width="308.794px" height="48.591px" viewBox="0 0 308.794 48.591" enable-background="new 0 0 308.794 48.591"
	 xml:space="preserve">
<g>
	<path fill-rule="evenodd" clip-rule="evenodd" fill="#CCCCCC" d="M43.357,38.329c0.443-0.042,0.56-0.192,0.365-0.526
		c-0.212-0.363-0.477-0.708-0.773-1.007c-0.363-0.367-0.782-0.677-1.117-0.96c0.024-0.261,0.043-0.475,0.065-0.707
		c1.169-0.561,1.413-1.81,0.018-2.372c0.242-0.233,0.512-0.447,0.723-0.708c0.276-0.342,0.388-0.749,0.175-1.167
		c-0.212-0.417-0.603-0.557-1.043-0.56c-0.213-0.001-0.426,0.042-0.668,0.069c0-0.309,0.027-0.602-0.005-0.888
		c-0.071-0.623-0.479-0.907-1.053-0.67c-0.474,0.196-0.905,0.5-1.343,0.774c-0.226,0.142-0.425,0.325-0.641,0.494
		c-0.415-0.456-0.793-0.898-1.2-1.312c-1.064-1.082-2.195-2.074-3.659-2.595c-0.067-0.023-0.127-0.069-0.186-0.111
		c-0.746-0.54-1.543-0.979-2.417-1.28c-0.078-0.027-0.146-0.097-0.208-0.158c-0.181-0.176-0.33-0.401-0.539-0.528
		c-0.407-0.247-0.854-0.43-1.272-0.66c-0.458-0.252-0.675-0.645-0.564-1.172c0.163-0.782,0.277-1.582,0.521-2.339
		c1.136-3.518,2.775-6.814,4.536-10.052c0.349-0.641,0.584-1.311,0.657-2.033c0.048-0.469,0.059-0.941,0.089-1.456
		c0.252,0.11,0.479,0.208,0.736,0.32c0.166-1.105-0.507-1.839-1.19-2.624c0.354-0.049,0.649-0.089,0.969-0.133
		c-0.406-1.241-1.32-1.833-2.618-2.03c0.268-0.252,0.482-0.455,0.709-0.669c-1.059-0.566-2.132-0.721-3.257-0.271
		c-0.284,0.114-0.429,0.02-0.385-0.284C28.818,0.471,28.911,0.237,28.978,0c-0.042,0-0.083,0-0.125,0
		c-0.133,0.049-0.265,0.1-0.399,0.146c-0.721,0.245-1.308,0.673-1.77,1.278c-0.106,0.139-0.229,0.265-0.344,0.396
		c-0.754-0.592-1.33-0.587-2,0.078c-0.771,0.763-1.326,1.664-1.442,2.769c-0.037,0.343,0.038,0.697,0.064,1.088
		c-0.948,0.682-2.067,0.893-3.266,0.778c-1.034-0.099-2.021-0.382-2.981-0.765c-1.003-0.4-2.031-0.623-3.112-0.429
		c-1.438,0.258-2.443,1.105-3.105,2.375c-0.707,1.354-0.899,2.82-0.912,4.392c0.202-0.137,0.364-0.238,0.516-0.353
		c1.065-0.803,2.159-1.558,3.389-2.096c2.17-0.948,4.437-1.223,6.779-0.994c0.248,0.024,0.495,0.052,0.833,0.088
		C20.941,8.866,20.854,8.948,20.75,9c-1.313,0.651-2.617,1.318-3.944,1.938c-1.165,0.543-2.305,1.119-3.278,1.97
		c-0.317,0.277-0.609,0.604-0.837,0.958c-0.381,0.593-0.271,1.107,0.241,1.593c0.106,0.101,0.186,0.246,0.239,0.385
		c0.775,2.054,1.998,3.783,3.742,5.128c0.573,0.442,1.208,0.771,1.914,0.955c1.147,0.299,2.078-0.177,2.952-0.832
		c1.697-1.273,2.876-2.96,3.817-4.832c0.172-0.343,0.309-0.704,0.456-1.059c0.49-1.184,1.3-2.139,2.147-3.068
		c0.034,0.007,0.069,0.015,0.104,0.022c-0.036,0.532-0.042,1.069-0.113,1.597c-0.213,1.599-0.911,3.018-1.702,4.395
		c-0.971,1.687-1.971,3.356-2.915,5.058c-0.407,0.734-0.712,1.525-1.05,2.297c-0.076,0.172-0.147,0.237-0.344,0.189
		c-1.384-0.34-2.771-0.687-4.059-1.31c-0.812-0.393-1.552-0.931-2.355-1.343c-0.671-0.344-1.388-0.6-2.084-0.896
		c-0.075-0.032-0.16-0.058-0.218-0.11c-0.908-0.825-1.825-1.64-2.711-2.489c-0.289-0.277-0.462-0.672-0.744-0.96
		c-0.426-0.437-0.883-0.847-1.362-1.225c-0.182-0.144-0.453-0.196-0.693-0.243c-0.287-0.055-0.417,0.172-0.537,0.383
		c0,0.229,0,0.458,0,0.688c0.012,0.017,0.033,0.031,0.037,0.049c0.337,1.756,1.335,3.115,2.595,4.314
		c0.333,0.317,0.686,0.614,1.029,0.92c-0.695-0.333-1.349-0.728-2.004-1.122C8.867,22.226,8.673,22.051,8.451,22
		c-0.222-0.05-0.509-0.042-0.702,0.063c-0.236,0.127-0.208,0.434-0.104,0.651c0.182,0.381,0.375,0.769,0.632,1.102
		c0.666,0.864,1.503,1.557,2.376,2.2c0.711,0.523,1.443,1.016,2.222,1.561c-0.157-0.046-0.252-0.08-0.35-0.103
		c-0.728-0.167-1.449-0.382-2.186-0.482c-0.617-0.084-0.884,0.322-0.601,0.885c0.183,0.362,0.455,0.7,0.752,0.979
		c0.724,0.678,1.605,1.107,2.525,1.457c0.303,0.115,0.61,0.221,0.904,0.326c-0.321,0-0.645-0.023-0.964,0.006
		c-0.37,0.033-0.751,0.067-1.101,0.183c-0.413,0.137-0.495,0.509-0.219,0.849c0.141,0.175,0.323,0.327,0.51,0.453
		c0.76,0.511,1.618,0.802,2.488,1.055c0.415,0.121,0.836,0.217,1.279,0.331c-0.491,0.082-0.953,0.139-1.405,0.239
		c-0.45,0.1-0.584,0.43-0.322,0.814c0.142,0.208,0.341,0.402,0.558,0.529c0.292,0.17,0.618,0.301,0.945,0.394
		c1.066,0.3,2.163,0.312,3.255,0.242c0.48-0.031,0.913,0.027,1.359,0.203c0.786,0.31,1.62,0.359,2.458,0.322
		c0.04,0.078,0.076,0.141,0.104,0.207c0.554,1.266,1.316,2.383,2.337,3.321c0.095,0.087,0.157,0.217,0.218,0.334
		c0.482,0.922,0.931,1.867,1.768,2.543c0.038,0.031,0.083,0.082,0.084,0.125c0.019,0.393,0.054,0.788,0.026,1.178
		c-0.008,0.109-0.193,0.264-0.323,0.297c-0.638,0.164-1.262,0.022-1.874-0.161c-0.717-0.215-1.426-0.458-2.145-0.667
		c-0.205-0.059-0.444-0.089-0.645-0.039c-0.167,0.042-0.358,0.193-0.426,0.346c-0.048,0.108,0.098,0.298,0.146,0.456
		c0.029,0.094,0.082,0.228,0.042,0.285c-0.067,0.095-0.205,0.137-0.306,0.211c-0.141,0.104-0.377,0.207-0.387,0.326
		c-0.014,0.174,0.112,0.378,0.226,0.536c0.062,0.085,0.217,0.13,0.335,0.142c0.247,0.025,0.497,0.03,0.745,0.018
		c0.318-0.016,0.497,0.12,0.481,0.442c-0.013,0.278,0.13,0.384,0.367,0.394c0.175,0.008,0.362,0.009,0.525-0.044
		c0.574-0.185,1.146-0.377,1.707-0.598c0.916-0.36,1.847-0.549,2.839-0.427c0.556,0.068,1.122,0.076,1.683,0.069
		c0.418-0.005,0.579-0.331,0.316-0.656c-0.144-0.178-0.393-0.338-0.615-0.371c-0.427-0.063-0.869-0.052-1.302-0.029
		c-0.413,0.022-0.461,0.015-0.449-0.404c0.009-0.343,0.066-0.683,0.089-1.026c0.013-0.188,0.083-0.284,0.274-0.353
		c0.26-0.095,0.506-0.24,0.74-0.392c0.271-0.178,0.436-0.151,0.67,0.076c0.318,0.309,0.654,0.603,1.008,0.869
		c0.175,0.132,0.407,0.189,0.659,0.3c-0.108,0.63-0.211,1.254-0.324,1.877c-0.038,0.213-0.171,0.327-0.391,0.389
		c-0.943,0.264-1.893,0.391-2.871,0.249c-0.308-0.045-0.625-0.08-0.933-0.053c-0.293,0.025-0.6,0.095-0.86,0.227
		c-0.14,0.07-0.265,0.31-0.265,0.473c0,0.108,0.228,0.294,0.367,0.308c0.447,0.042,0.559,0.331,0.592,0.691
		c0.008,0.083-0.056,0.204-0.125,0.258c-0.17,0.133-0.409,0.203-0.532,0.364c-0.109,0.144-0.176,0.407-0.118,0.563
		c0.049,0.131,0.315,0.271,0.469,0.255c0.355-0.038,0.736-0.104,1.041-0.276c0.52-0.293,0.93-0.077,1.399,0.137
		c-0.18,0.358-0.317,0.704,0.098,0.974c0.083,0,0.167,0,0.25,0c0.96-0.533,1.619-1.385,2.312-2.2
		c0.115-0.135,0.22-0.277,0.328-0.417c0.361-0.474,0.845-0.681,1.434-0.694c0.414-0.009,0.829-0.039,1.242-0.074
		c0.109-0.009,0.222-0.06,0.32-0.113c0.341-0.186,0.372-0.585,0.029-0.768c-0.238-0.126-0.53-0.188-0.802-0.205
		c-0.34-0.021-0.688,0.01-1.025,0.062c-0.262,0.04-0.43-0.054-0.473-0.282c-0.102-0.539-0.17-1.083-0.237-1.627
		c-0.007-0.051,0.075-0.152,0.132-0.168c0.996-0.274,1.617-0.977,2.116-1.824c0.03-0.052,0.066-0.1,0.064-0.097
		c0.942,0.463,1.846,0.955,2.788,1.359c1.122,0.482,2.296,0.804,3.534,0.807c0.226,0,0.46-0.022,0.677-0.083
		c0.448-0.128,0.572-0.476,0.327-0.872c-0.086-0.139-0.202-0.259-0.336-0.428c0.275,0.035,0.513,0.087,0.75,0.09
		c0.36,0.005,0.738,0.038,1.077-0.054c0.58-0.156,0.741-0.68,0.402-1.181c-0.155-0.229-0.359-0.424-0.562-0.659
		c0.414-0.024,0.875,0.121,1.155-0.321c0-0.104,0-0.208,0-0.313C44.441,39.274,43.912,38.811,43.357,38.329z M25.42,3.364
		L25.42,3.364c0.035,0.026,0.068,0.053,0.101,0.078C25.488,3.417,25.455,3.391,25.42,3.364z"/>
</g>
<text transform="matrix(1 0 0 1 48.4976 48.5913)" fill="#CCCCCC" font-family="'Calibri'" font-size="75.3679">T</text>
<text transform="matrix(1 0 0 1 85.0244 49.0103)"><tspan x="0" y="0" fill="#CCCCCC" font-family="'Calibri'" font-size="52.0047" letter-spacing="4">WY</tspan><tspan x="79.929" y="0" fill="#CCCCCC" font-family="'Calibri'" font-size="52.0047" letter-spacing="-1">T</tspan><tspan x="103.919" y="0" fill="#CCCCCC" font-family="'Calibri'" font-size="52.0047" letter-spacing="4">TER</tspan><tspan x="195.372" y="0" fill="#CCCCCC" font-family="'Calibri'" font-size="70" letter-spacing="5">!</tspan></text>
</svg>
